<svg id="Layer_1" data-name="Layer 1" xmlns="http://www.w3.org/2000/svg" xmlns:xlink="http://www.w3.org/1999/xlink" viewBox="0 0 684.78 801.63"><defs><style>.cls-1{fill:url(#linear-gradient);}.cls-2{fill:url(#linear-gradient-2);}</style><linearGradient id="linear-gradient" x1="157.61" y1="596.63" x2="842.39" y2="596.63" gradientUnits="userSpaceOnUse"><stop offset="0" stop-color="#1d2835"/><stop offset="0.37" stop-color="#2b3a55"/><stop offset="0.57" stop-color="#3b5275"/><stop offset="0.71" stop-color="#456189"/><stop offset="0.72" stop-color="#456189"/><stop offset="1" stop-color="#3b5172"/></linearGradient><linearGradient id="linear-gradient-2" x1="260.67" y1="396.34" x2="739.33" y2="396.34" gradientUnits="userSpaceOnUse"><stop offset="0" stop-color="#be7f88"/><stop offset="0.12" stop-color="#e09d9f"/><stop offset="0.22" stop-color="#f7b1af"/><stop offset="0.4" stop-color="#f9c5c4"/><stop offset="0.62" stop-color="#fbd8d8"/><stop offset="1" stop-color="#b57782"/></linearGradient></defs><path class="cls-1" d="M715.6,292.45a284.77,284.77,0,0,1,70.27,187.71C785.87,638.05,657.88,766,500,766s-285.87-128-285.87-285.87A284.77,284.77,0,0,1,284.4,292.45c-77.35,62.78-126.79,158.6-126.79,266,0,189.1,153.29,342.4,342.39,342.4s342.39-153.3,342.39-342.4C842.39,451.05,793,355.23,715.6,292.45Z" transform="translate(-157.61 -99.18)"/><path class="cls-2" d="M500,693.49c132.18,0,239.33-107.15,239.33-239.33A239.56,239.56,0,0,0,620.91,247.59l-22,22a208,208,0,0,1,36.79,25.14H545V224.49h-1v70.25h-4V224.49h-5v70.25h-4V224.49h-1v70.25H507.5V201.49h10.76L535,153.26a60.24,60.24,0,0,1-35-54.08h0a60.24,60.24,0,0,1-35,54.08l16.73,48.23H492.5v93.25H470V224.49h-1v70.25h-4V224.49h-5v70.25h-4V224.49h-1v70.25H364.32a208,208,0,0,1,36.79-25.14l-22-22A239.31,239.31,0,0,0,260.67,454.16C260.67,586.34,367.82,693.49,500,693.49Zm45-368.75H664.56A209.3,209.3,0,0,1,545,658.65Zm-5,0h4V658.87c-1.33.28-2.66.55-4,.81Zm-9,0h4V660.59c-1.33.22-2.66.44-4,.64ZM502,663.47l-2,0-2,0V324.74H502ZM530,324.74V661.36a212.51,212.51,0,0,1-22.49,2V324.74ZM489.63,176A10.37,10.37,0,1,1,502,186.13V294.74H498V186.13A10.36,10.36,0,0,1,489.63,176ZM470,324.74H492.5V663.35a212.51,212.51,0,0,1-22.49-2Zm-5,0h4V661.23c-1.34-.2-2.67-.42-4-.64Zm-9,0h4V659.68c-1.34-.26-2.67-.53-4-.81ZM307.1,372.69a208.18,208.18,0,0,1,28.34-47.95H455V658.65a209.56,209.56,0,0,1-147.91-286Z" transform="translate(-157.61 -99.18)"/></svg>
